<svg width="215" height="215" viewBox="0 0 215 215" fill="none" xmlns="http://www.w3.org/2000/svg">
<circle cx="2.90541" cy="2.90541" r="2.90541" fill="#ffffff"/>
<circle cx="2.90541" cy="20.3378" r="2.90541" fill="#ffffff"/>
<circle cx="2.90541" cy="37.7703" r="2.90541" fill="#ffffff"/>
<circle cx="2.90541" cy="55.2027" r="2.90541" fill="#ffffff"/>
<circle cx="2.90541" cy="72.6351" r="2.90541" fill="#ffffff"/>
<circle cx="2.90541" cy="90.0676" r="2.90541" fill="#ffffff"/>
<circle cx="2.90541" cy="107.5" r="2.90541" fill="#ffffff"/>
<circle cx="2.90541" cy="124.932" r="2.90541" fill="#ffffff"/>
<circle cx="2.90541" cy="142.365" r="2.90541" fill="#ffffff"/>
<circle cx="2.90541" cy="159.797" r="2.90541" fill="#ffffff"/>
<circle cx="2.90541" cy="177.23" r="2.90541" fill="#ffffff"/>
<circle cx="2.90541" cy="194.662" r="2.90541" fill="#ffffff"/>
<circle cx="2.90541" cy="212.095" r="2.90541" fill="#ffffff"/>
<circle cx="20.3378" cy="2.90541" r="2.90541" fill="#ffffff"/>
<circle cx="20.3378" cy="20.3378" r="2.90541" fill="#ffffff"/>
<circle cx="20.3378" cy="37.7703" r="2.90541" fill="#ffffff"/>
<circle cx="20.3378" cy="55.2027" r="2.90541" fill="#ffffff"/>
<circle cx="20.3378" cy="72.6351" r="2.90541" fill="#ffffff"/>
<circle cx="20.3378" cy="90.0676" r="2.90541" fill="#ffffff"/>
<circle cx="20.3378" cy="107.5" r="2.90541" fill="#ffffff"/>
<circle cx="20.3378" cy="124.932" r="2.90541" fill="#ffffff"/>
<circle cx="20.3378" cy="142.365" r="2.90541" fill="#ffffff"/>
<circle cx="20.3378" cy="159.797" r="2.90541" fill="#ffffff"/>
<circle cx="20.3378" cy="177.23" r="2.90541" fill="#ffffff"/>
<circle cx="20.3378" cy="194.662" r="2.90541" fill="#ffffff"/>
<circle cx="20.3378" cy="212.095" r="2.90541" fill="#ffffff"/>
<circle cx="37.7703" cy="2.90541" r="2.90541" fill="#ffffff"/>
<circle cx="37.7703" cy="20.3378" r="2.90541" fill="#ffffff"/>
<circle cx="37.7703" cy="37.7703" r="2.90541" fill="#ffffff"/>
<circle cx="37.7703" cy="55.2027" r="2.90541" fill="#ffffff"/>
<circle cx="37.7703" cy="72.6351" r="2.90541" fill="#ffffff"/>
<circle cx="37.7703" cy="90.0676" r="2.90541" fill="#ffffff"/>
<circle cx="37.7703" cy="107.5" r="2.90541" fill="#ffffff"/>
<circle cx="37.7703" cy="124.932" r="2.90541" fill="#ffffff"/>
<circle cx="37.7703" cy="142.365" r="2.90541" fill="#ffffff"/>
<circle cx="37.7703" cy="159.797" r="2.90541" fill="#ffffff"/>
<circle cx="37.7703" cy="177.23" r="2.90541" fill="#ffffff"/>
<circle cx="37.7703" cy="194.662" r="2.90541" fill="#ffffff"/>
<circle cx="37.7703" cy="212.095" r="2.90541" fill="#ffffff"/>
<circle cx="55.2027" cy="2.90541" r="2.90541" fill="#ffffff"/>
<circle cx="55.2027" cy="20.3378" r="2.90541" fill="#ffffff"/>
<circle cx="55.2027" cy="37.7703" r="2.90541" fill="#ffffff"/>
<circle cx="55.2027" cy="55.2027" r="2.90541" fill="#ffffff"/>
<circle cx="55.2027" cy="72.6351" r="2.90541" fill="#ffffff"/>
<circle cx="55.2027" cy="90.0676" r="2.90541" fill="#ffffff"/>
<circle cx="55.2027" cy="107.5" r="2.90541" fill="#ffffff"/>
<circle cx="55.2027" cy="124.932" r="2.90541" fill="#ffffff"/>
<circle cx="55.2027" cy="142.365" r="2.90541" fill="#ffffff"/>
<circle cx="55.2027" cy="159.797" r="2.90541" fill="#ffffff"/>
<circle cx="55.2027" cy="177.23" r="2.90541" fill="#ffffff"/>
<circle cx="55.2027" cy="194.662" r="2.90541" fill="#ffffff"/>
<circle cx="55.2027" cy="212.095" r="2.90541" fill="#ffffff"/>
<circle cx="72.6351" cy="2.90541" r="2.90541" fill="#ffffff"/>
<circle cx="72.6351" cy="20.3378" r="2.90541" fill="#ffffff"/>
<circle cx="72.6351" cy="37.7703" r="2.90541" fill="#ffffff"/>
<circle cx="72.6351" cy="55.2027" r="2.90541" fill="#ffffff"/>
<circle cx="72.6351" cy="72.6351" r="2.90541" fill="#ffffff"/>
<circle cx="72.6351" cy="90.0676" r="2.90541" fill="#ffffff"/>
<circle cx="72.6351" cy="107.5" r="2.90541" fill="#ffffff"/>
<circle cx="72.6351" cy="124.932" r="2.90541" fill="#ffffff"/>
<circle cx="72.6351" cy="142.365" r="2.90541" fill="#ffffff"/>
<circle cx="72.6351" cy="159.797" r="2.90541" fill="#ffffff"/>
<circle cx="72.6351" cy="177.23" r="2.90541" fill="#ffffff"/>
<circle cx="72.6351" cy="194.662" r="2.90541" fill="#ffffff"/>
<circle cx="72.6351" cy="212.095" r="2.90541" fill="#ffffff"/>
<circle cx="90.0676" cy="2.90541" r="2.90541" fill="#ffffff"/>
<circle cx="90.0676" cy="20.3378" r="2.90541" fill="#ffffff"/>
<circle cx="90.0676" cy="37.7703" r="2.90541" fill="#ffffff"/>
<circle cx="90.0676" cy="55.2027" r="2.90541" fill="#ffffff"/>
<circle cx="90.0676" cy="72.6351" r="2.90541" fill="#ffffff"/>
<circle cx="90.0676" cy="90.0676" r="2.90541" fill="#ffffff"/>
<circle cx="90.0676" cy="107.5" r="2.90541" fill="#ffffff"/>
<circle cx="90.0676" cy="124.932" r="2.90541" fill="#ffffff"/>
<circle cx="90.0676" cy="142.365" r="2.90541" fill="#ffffff"/>
<circle cx="90.0676" cy="159.797" r="2.90541" fill="#ffffff"/>
<circle cx="90.0676" cy="177.23" r="2.90541" fill="#ffffff"/>
<circle cx="90.0676" cy="194.662" r="2.90541" fill="#ffffff"/>
<circle cx="90.0676" cy="212.095" r="2.90541" fill="#ffffff"/>
<circle cx="107.5" cy="2.90541" r="2.90541" fill="#ffffff"/>
<circle cx="107.5" cy="20.3378" r="2.90541" fill="#ffffff"/>
<circle cx="107.5" cy="37.7703" r="2.90541" fill="#ffffff"/>
<circle cx="107.5" cy="55.2027" r="2.90541" fill="#ffffff"/>
<circle cx="107.5" cy="72.6351" r="2.90541" fill="#ffffff"/>
<circle cx="107.5" cy="90.0676" r="2.90541" fill="#ffffff"/>
<circle cx="107.5" cy="107.5" r="2.90541" fill="#ffffff"/>
<circle cx="107.5" cy="124.932" r="2.90541" fill="#ffffff"/>
<circle cx="107.5" cy="142.365" r="2.90541" fill="#ffffff"/>
<circle cx="107.5" cy="159.797" r="2.90541" fill="#ffffff"/>
<circle cx="107.5" cy="177.23" r="2.90541" fill="#ffffff"/>
<circle cx="107.5" cy="194.662" r="2.90541" fill="#ffffff"/>
<circle cx="107.5" cy="212.095" r="2.90541" fill="#ffffff"/>
<circle cx="124.932" cy="2.90541" r="2.90541" fill="#ffffff"/>
<circle cx="124.932" cy="20.3378" r="2.90541" fill="#ffffff"/>
<circle cx="124.932" cy="37.7703" r="2.90541" fill="#ffffff"/>
<circle cx="124.932" cy="55.2027" r="2.90541" fill="#ffffff"/>
<circle cx="124.932" cy="72.6351" r="2.90541" fill="#ffffff"/>
<circle cx="124.932" cy="90.0676" r="2.90541" fill="#ffffff"/>
<circle cx="124.932" cy="107.5" r="2.90541" fill="#ffffff"/>
<circle cx="124.932" cy="124.932" r="2.90541" fill="#ffffff"/>
<circle cx="124.932" cy="142.365" r="2.90541" fill="#ffffff"/>
<circle cx="124.932" cy="159.797" r="2.90541" fill="#ffffff"/>
<circle cx="124.932" cy="177.23" r="2.90541" fill="#ffffff"/>
<circle cx="124.932" cy="194.662" r="2.90541" fill="#ffffff"/>
<circle cx="124.932" cy="212.095" r="2.90541" fill="#ffffff"/>
<circle cx="142.365" cy="2.90541" r="2.90541" fill="#ffffff"/>
<circle cx="142.365" cy="20.3378" r="2.90541" fill="#ffffff"/>
<circle cx="142.365" cy="37.7703" r="2.90541" fill="#ffffff"/>
<circle cx="142.365" cy="55.2027" r="2.90541" fill="#ffffff"/>
<circle cx="142.365" cy="72.6351" r="2.90541" fill="#ffffff"/>
<circle cx="142.365" cy="90.0676" r="2.90541" fill="#ffffff"/>
<circle cx="142.365" cy="107.5" r="2.90541" fill="#ffffff"/>
<circle cx="142.365" cy="124.932" r="2.90541" fill="#ffffff"/>
<circle cx="142.365" cy="142.365" r="2.90541" fill="#ffffff"/>
<circle cx="142.365" cy="159.797" r="2.90541" fill="#ffffff"/>
<circle cx="142.365" cy="177.23" r="2.90541" fill="#ffffff"/>
<circle cx="142.365" cy="194.662" r="2.90541" fill="#ffffff"/>
<circle cx="142.365" cy="212.095" r="2.90541" fill="#ffffff"/>
<circle cx="159.797" cy="2.90541" r="2.90541" fill="#ffffff"/>
<circle cx="159.797" cy="20.3378" r="2.90541" fill="#ffffff"/>
<circle cx="159.797" cy="37.7703" r="2.90541" fill="#ffffff"/>
<circle cx="159.797" cy="55.2027" r="2.90541" fill="#ffffff"/>
<circle cx="159.797" cy="72.6351" r="2.90541" fill="#ffffff"/>
<circle cx="159.797" cy="90.0676" r="2.90541" fill="#ffffff"/>
<circle cx="159.797" cy="107.5" r="2.90541" fill="#ffffff"/>
<circle cx="159.797" cy="124.932" r="2.90541" fill="#ffffff"/>
<circle cx="159.797" cy="142.365" r="2.90541" fill="#ffffff"/>
<circle cx="159.797" cy="159.797" r="2.90541" fill="#ffffff"/>
<circle cx="159.797" cy="177.23" r="2.90541" fill="#ffffff"/>
<circle cx="159.797" cy="194.662" r="2.90541" fill="#ffffff"/>
<circle cx="159.797" cy="212.095" r="2.90541" fill="#ffffff"/>
<circle cx="177.23" cy="2.90541" r="2.90541" fill="#ffffff"/>
<circle cx="177.23" cy="20.3378" r="2.90541" fill="#ffffff"/>
<circle cx="177.23" cy="37.7703" r="2.90541" fill="#ffffff"/>
<circle cx="177.23" cy="55.2027" r="2.90541" fill="#ffffff"/>
<circle cx="177.23" cy="72.6351" r="2.90541" fill="#ffffff"/>
<circle cx="177.23" cy="90.0676" r="2.90541" fill="#ffffff"/>
<circle cx="177.23" cy="107.5" r="2.90541" fill="#ffffff"/>
<circle cx="177.23" cy="124.932" r="2.90541" fill="#ffffff"/>
<circle cx="177.23" cy="142.365" r="2.90541" fill="#ffffff"/>
<circle cx="177.23" cy="159.797" r="2.90541" fill="#ffffff"/>
<circle cx="177.23" cy="177.23" r="2.90541" fill="#ffffff"/>
<circle cx="177.23" cy="194.662" r="2.90541" fill="#ffffff"/>
<circle cx="177.23" cy="212.095" r="2.90541" fill="#ffffff"/>
<circle cx="194.662" cy="2.90541" r="2.90541" fill="#ffffff"/>
<circle cx="194.662" cy="20.3378" r="2.90541" fill="#ffffff"/>
<circle cx="194.662" cy="37.7703" r="2.90541" fill="#ffffff"/>
<circle cx="194.662" cy="55.2027" r="2.90541" fill="#ffffff"/>
<circle cx="194.662" cy="72.6351" r="2.90541" fill="#ffffff"/>
<circle cx="194.662" cy="90.0676" r="2.90541" fill="#ffffff"/>
<circle cx="194.662" cy="107.5" r="2.90541" fill="#ffffff"/>
<circle cx="194.662" cy="124.932" r="2.90541" fill="#ffffff"/>
<circle cx="194.662" cy="142.365" r="2.90541" fill="#ffffff"/>
<circle cx="194.662" cy="159.797" r="2.90541" fill="#ffffff"/>
<circle cx="194.662" cy="177.23" r="2.90541" fill="#ffffff"/>
<circle cx="194.662" cy="194.662" r="2.90541" fill="#ffffff"/>
<circle cx="194.662" cy="212.095" r="2.90541" fill="#ffffff"/>
<circle cx="212.095" cy="2.90541" r="2.90541" fill="#ffffff"/>
<circle cx="212.095" cy="20.3378" r="2.90541" fill="#ffffff"/>
<circle cx="212.095" cy="37.7703" r="2.90541" fill="#ffffff"/>
<circle cx="212.095" cy="55.2027" r="2.90541" fill="#ffffff"/>
<circle cx="212.095" cy="72.6351" r="2.90541" fill="#ffffff"/>
<circle cx="212.095" cy="90.0676" r="2.90541" fill="#ffffff"/>
<circle cx="212.095" cy="107.5" r="2.90541" fill="#ffffff"/>
<circle cx="212.095" cy="124.932" r="2.90541" fill="#ffffff"/>
<circle cx="212.095" cy="142.365" r="2.90541" fill="#ffffff"/>
<circle cx="212.095" cy="159.797" r="2.90541" fill="#ffffff"/>
<circle cx="212.095" cy="177.23" r="2.90541" fill="#ffffff"/>
<circle cx="212.095" cy="194.662" r="2.90541" fill="#ffffff"/>
<circle cx="212.095" cy="212.095" r="2.90541" fill="#ffffff"/>
</svg>
